<svg id="svg" version="1.1" xmlns="http://www.w3.org/2000/svg" xmlns:xlink="http://www.w3.org/1999/xlink" width="400" height="400" viewBox="0, 0, 400,400"><g id="svgg"><path id="path0" d="M186.813 6.135 C 186.091 6.593,184.041 6.700,182.258 6.374 C 180.474 6.047,178.224 6.148,177.258 6.598 C 176.291 7.048,173.700 7.518,171.500 7.642 C 163.870 8.074,155.616 9.653,155.250 10.751 C 155.031 11.408,153.559 11.640,151.615 11.325 C 149.279 10.946,147.835 11.307,146.549 12.593 C 145.419 13.724,143.533 14.310,141.472 14.171 C 139.498 14.038,137.531 14.612,136.530 15.613 C 135.616 16.527,133.252 17.373,131.276 17.493 C 129.301 17.613,127.143 18.451,126.482 19.356 C 125.821 20.260,124.152 21.000,122.775 21.000 C 121.397 21.000,119.126 21.900,117.727 23.000 C 116.329 24.100,114.278 25.000,113.169 25.000 C 112.060 25.000,109.816 26.125,108.182 27.500 C 106.548 28.875,104.289 30.000,103.162 30.000 C 102.035 30.000,100.454 30.941,99.648 32.092 C 98.079 34.332,93.179 38.137,94.393 36.173 C 95.288 34.725,94.468 34.679,91.934 36.035 C 90.870 36.605,90.000 37.712,90.000 38.497 C 90.000 39.299,88.358 40.365,86.249 40.933 C 83.965 41.548,82.108 42.815,81.499 44.173 C 80.932 45.440,79.124 46.753,77.314 47.214 C 75.466 47.684,73.860 48.867,73.491 50.029 C 73.141 51.132,71.312 52.678,69.427 53.466 C 67.542 54.254,66.000 55.611,66.000 56.483 C 66.000 57.354,64.422 58.999,62.493 60.136 C 60.565 61.274,58.738 63.196,58.434 64.406 C 58.128 65.625,56.591 67.093,54.986 67.699 C 53.257 68.352,51.845 69.770,51.481 71.218 C 51.147 72.552,49.609 74.390,48.065 75.302 C 46.453 76.255,45.019 78.140,44.698 79.730 C 44.374 81.329,43.157 82.923,41.819 83.500 C 40.339 84.138,39.384 85.515,39.178 87.304 C 38.970 89.122,37.995 90.501,36.404 91.226 C 35.056 91.840,33.670 93.503,33.326 94.921 C 32.981 96.340,31.417 98.978,29.850 100.785 C 28.282 102.591,27.000 104.884,27.000 105.880 C 27.000 106.875,26.100 108.505,25.000 109.500 C 23.900 110.495,23.000 112.120,23.000 113.111 C 23.000 114.101,21.875 116.569,20.500 118.595 C 19.125 120.621,18.000 123.193,18.000 124.311 C 18.000 125.428,17.325 127.088,16.500 127.999 C 15.676 128.911,14.841 131.026,14.646 132.701 C 14.452 134.375,13.551 136.802,12.646 138.095 C 11.741 139.388,11.000 141.499,11.000 142.788 C 11.000 144.077,10.538 145.995,9.972 147.051 C 5.428 155.543,1.731 198.268,3.833 218.000 C 5.179 230.640,8.067 246.077,8.979 245.513 C 9.382 245.264,9.519 246.067,9.283 247.298 C 7.195 258.221,40.266 321.754,46.746 319.267 C 47.977 318.795,48.185 319.075,47.645 320.482 C 46.781 322.735,50.468 327.000,53.281 327.000 C 54.581 327.000,55.027 327.487,54.643 328.488 C 53.816 330.642,58.333 335.193,60.480 334.369 C 61.794 333.865,62.115 334.158,61.832 335.604 C 61.336 338.141,65.493 341.945,68.035 341.281 C 70.243 340.703,70.891 343.474,68.750 344.338 C 67.954 344.659,68.092 344.871,69.128 344.921 C 70.023 344.964,71.443 346.012,72.283 347.250 C 73.512 349.061,74.062 349.256,75.105 348.250 C 77.094 346.330,78.274 346.760,77.847 349.250 C 77.363 352.072,81.186 356.131,83.155 354.883 C 83.895 354.414,85.063 354.024,85.750 354.015 C 87.375 353.995,87.375 356.682,85.750 357.338 C 84.990 357.644,85.172 357.873,86.215 357.921 C 87.158 357.964,88.411 358.900,89.000 360.000 C 89.994 361.858,90.239 361.889,92.443 360.446 C 94.850 358.868,96.806 359.887,95.483 362.028 C 94.439 363.716,99.204 366.961,101.177 365.905 C 102.107 365.407,103.348 365.000,103.934 365.000 C 105.422 365.000,105.272 367.724,103.750 368.338 C 102.854 368.699,102.903 368.864,103.921 368.921 C 104.703 368.964,106.176 369.754,107.195 370.676 C 108.615 371.962,109.322 372.078,110.224 371.176 C 112.159 369.241,114.299 369.747,113.710 372.000 C 113.377 373.274,113.680 374.000,114.544 374.000 C 115.290 374.000,116.365 374.788,116.932 375.750 C 117.636 376.945,118.207 377.146,118.732 376.385 C 120.072 374.439,124.000 373.667,124.000 375.349 C 124.000 376.166,123.437 377.060,122.750 377.338 C 121.854 377.699,121.903 377.864,122.921 377.921 C 123.703 377.964,125.146 378.727,126.127 379.615 C 127.771 381.102,128.041 381.102,129.528 379.615 C 131.297 377.845,134.000 377.444,134.000 378.950 C 134.000 379.473,133.213 380.359,132.250 380.920 C 130.652 381.851,130.678 381.942,132.550 381.970 C 133.678 381.986,135.088 382.488,135.685 383.085 C 136.465 383.865,137.630 383.726,139.828 382.589 C 142.996 380.951,145.719 382.297,142.878 384.096 C 141.850 384.748,142.059 384.973,143.700 384.985 C 144.910 384.993,146.317 385.744,146.826 386.654 C 147.664 388.152,147.972 388.104,150.065 386.154 C 153.445 383.006,155.789 383.688,152.750 386.936 C 151.725 388.031,151.906 388.174,153.752 387.729 C 155.201 387.380,156.319 387.747,156.885 388.758 C 157.660 390.145,158.088 390.076,160.500 388.179 C 162.004 386.995,163.700 386.315,164.269 386.666 C 164.898 387.055,164.557 387.883,163.401 388.778 C 161.560 390.203,161.567 390.234,163.608 389.756 C 164.767 389.484,166.479 389.689,167.412 390.211 C 168.595 390.872,169.837 390.682,171.519 389.580 C 174.457 387.654,175.000 387.616,175.000 389.333 C 175.000 390.589,176.116 390.960,180.250 391.075 C 181.213 391.102,182.000 391.500,182.000 391.958 C 182.000 392.417,186.725 392.632,192.500 392.435 C 199.207 392.207,203.000 392.446,203.000 393.098 C 203.000 393.659,203.481 393.821,204.068 393.458 C 204.656 393.095,204.900 392.183,204.612 391.431 C 203.806 389.331,205.604 388.813,207.137 390.703 C 208.074 391.859,208.110 392.149,207.250 391.633 C 206.563 391.220,206.000 391.330,206.000 391.878 C 206.000 393.604,213.407 391.863,215.107 389.738 C 216.337 388.199,216.900 388.030,217.510 389.016 C 218.004 389.815,217.607 390.815,216.462 391.652 C 214.709 392.934,214.726 393.000,216.809 393.000 C 218.014 393.000,219.000 392.550,219.000 392.000 C 219.000 391.450,220.099 391.000,221.443 391.000 C 222.787 391.000,224.524 390.090,225.303 388.978 C 226.506 387.260,226.896 387.170,227.901 388.381 C 228.818 389.486,228.794 389.924,227.792 390.335 C 227.081 390.626,228.075 390.621,230.000 390.323 C 231.925 390.025,234.302 388.863,235.283 387.739 C 236.843 385.952,237.365 385.857,239.465 386.981 C 240.884 387.741,242.608 387.942,243.683 387.475 C 244.682 387.040,246.175 386.774,247.000 386.884 C 248.312 387.058,248.316 386.960,247.029 386.096 C 244.769 384.579,246.739 383.472,249.788 384.545 C 254.085 386.058,260.736 385.259,258.352 383.515 C 255.997 381.793,257.178 380.490,259.815 381.901 C 261.276 382.683,262.820 382.591,265.651 381.552 C 267.768 380.776,268.938 380.109,268.250 380.070 C 267.563 380.032,267.000 379.364,267.000 378.587 C 267.000 377.439,267.551 377.382,269.930 378.279 C 274.035 379.829,278.073 377.996,277.275 374.944 C 276.761 372.980,276.915 372.884,278.887 373.939 C 281.669 375.428,288.523 373.335,286.975 371.469 C 285.572 369.779,286.870 369.000,289.453 369.982 C 292.053 370.971,296.500 368.457,296.500 366.000 C 296.500 364.945,297.332 364.598,299.303 364.829 C 302.581 365.213,305.000 363.535,305.000 360.878 C 305.000 358.855,306.621 358.475,308.952 359.949 C 309.975 360.597,310.804 360.297,311.759 358.934 C 312.504 357.870,313.875 356.964,314.807 356.921 C 315.848 356.873,316.019 356.648,315.250 356.338 C 313.915 355.799,313.492 352.990,314.750 353.015 C 315.163 353.024,316.152 353.443,316.949 353.947 C 318.880 355.169,323.188 350.654,322.299 348.338 C 321.783 346.992,322.137 346.817,324.284 347.356 C 327.053 348.052,333.126 343.590,330.653 342.676 C 329.795 342.359,329.809 341.922,330.708 340.967 C 331.638 339.979,332.240 339.954,333.331 340.860 C 335.057 342.292,338.614 337.667,338.129 334.620 C 337.881 333.059,338.268 332.850,340.415 333.389 C 341.837 333.746,343.000 333.664,343.000 333.208 C 343.000 332.751,343.918 331.392,345.039 330.189 C 346.160 328.985,346.610 328.000,346.039 328.000 C 345.468 328.000,345.000 327.550,345.000 327.000 C 345.000 326.450,346.125 326.000,347.500 326.000 C 348.875 326.000,350.000 325.635,350.000 325.189 C 350.000 324.742,350.918 323.392,352.039 322.189 C 353.160 320.985,353.610 320.000,353.039 320.000 C 352.468 320.000,352.000 319.550,352.000 319.000 C 352.000 318.450,352.847 318.000,353.881 318.000 C 356.839 318.000,366.328 305.018,365.310 302.365 C 364.880 301.245,365.122 300.874,366.074 301.191 C 368.028 301.843,382.000 277.484,382.000 273.427 C 382.000 273.083,382.622 271.384,383.383 269.651 C 384.143 267.918,385.314 264.925,385.984 263.000 C 386.654 261.075,387.584 258.600,388.050 257.500 C 389.122 254.972,391.973 243.906,393.073 238.000 C 395.557 224.670,396.069 220.347,396.615 208.063 C 397.162 195.793,395.733 170.771,394.270 167.000 C 393.951 166.175,393.555 163.969,393.391 162.097 C 393.228 160.225,392.623 158.223,392.047 157.647 C 391.471 157.071,391.000 155.099,391.000 153.265 C 391.000 151.430,390.286 148.840,389.414 147.509 C 388.541 146.177,388.128 144.602,388.496 144.007 C 388.863 143.413,388.227 141.129,387.082 138.932 C 385.937 136.736,385.000 134.032,385.000 132.924 C 385.000 131.816,383.988 129.901,382.750 128.670 C 381.287 127.213,380.609 125.501,380.811 123.776 C 381.006 122.109,380.354 120.354,379.061 119.061 C 377.927 117.927,377.000 115.908,377.000 114.573 C 377.000 113.174,375.940 111.311,374.500 110.179 C 373.009 109.006,372.000 107.190,372.000 105.679 C 372.000 104.167,370.991 102.352,369.500 101.179 C 368.125 100.097,367.000 98.297,367.000 97.178 C 367.000 94.690,364.238 91.735,362.765 92.645 C 362.153 93.024,361.979 92.842,362.362 92.224 C 362.731 91.627,362.575 90.856,362.016 90.510 C 361.457 90.165,361.000 89.083,361.000 88.106 C 361.000 87.130,359.650 85.128,358.000 83.658 C 356.350 82.187,355.000 80.426,355.000 79.742 C 355.000 79.059,353.425 77.243,351.500 75.707 C 349.575 74.171,348.000 72.249,348.000 71.436 C 348.000 70.623,346.841 69.429,345.425 68.784 C 344.009 68.139,342.187 66.329,341.377 64.762 C 340.567 63.195,338.850 61.433,337.562 60.846 C 336.274 60.260,334.726 58.694,334.121 57.367 C 333.445 55.882,331.859 54.722,329.998 54.350 C 327.958 53.942,326.787 53.001,326.400 51.458 C 326.084 50.200,324.568 48.649,323.030 48.012 C 321.492 47.375,319.284 45.762,318.124 44.427 C 316.963 43.092,315.351 42.000,314.541 42.000 C 313.731 42.000,311.688 40.650,310.000 39.000 C 308.312 37.350,306.128 36.000,305.146 36.000 C 304.164 36.000,302.382 34.875,301.187 33.500 C 299.769 31.870,297.967 31.000,296.007 31.000 C 294.353 31.000,293.000 30.582,293.000 30.071 C 293.000 28.304,289.847 26.000,287.429 26.000 C 286.093 26.000,284.100 25.100,283.000 24.000 C 281.900 22.900,280.041 22.000,278.868 22.000 C 277.695 22.000,275.207 21.055,273.337 19.899 C 271.254 18.612,269.067 18.017,267.687 18.364 C 266.089 18.765,265.059 18.325,264.136 16.847 C 263.103 15.192,262.152 14.876,259.504 15.306 C 257.011 15.710,255.732 15.362,254.431 13.923 C 253.367 12.748,251.375 12.000,249.310 12.000 C 247.451 12.000,244.824 11.275,243.472 10.390 C 241.896 9.357,240.081 9.014,238.412 9.433 C 236.970 9.795,235.213 9.592,234.474 8.978 C 233.006 7.760,227.350 7.316,226.328 8.339 C 225.974 8.693,225.011 8.424,224.188 7.741 C 223.365 7.059,220.624 6.410,218.096 6.299 C 199.483 5.487,187.932 5.427,186.813 6.135 M228.500 11.472 C 277.831 19.126,321.382 44.223,351.825 82.539 C 355.303 86.918,358.690 91.175,359.351 92.000 C 369.345 104.479,384.624 139.336,386.528 154.000 C 386.635 154.825,386.968 156.175,387.269 157.000 C 390.405 165.613,394.237 218.382,391.952 221.500 C 391.549 222.050,390.978 224.750,390.682 227.500 C 389.389 239.526,388.879 242.441,387.850 243.681 C 387.039 244.658,387.092 245.000,388.052 245.000 C 388.897 245.000,388.640 245.784,387.317 247.250 C 386.200 248.488,384.782 252.109,384.167 255.297 C 383.551 258.486,382.381 261.762,381.566 262.576 C 380.752 263.391,380.326 264.685,380.619 265.451 C 381.110 266.728,379.536 270.810,378.095 272.000 C 377.762 272.275,376.875 274.300,376.125 276.500 C 375.375 278.700,373.942 281.400,372.941 282.500 C 371.940 283.600,371.078 284.828,371.026 285.230 C 370.674 287.913,357.707 307.687,351.739 314.640 C 349.312 317.468,346.390 321.067,345.245 322.639 C 344.100 324.210,342.790 325.123,342.333 324.666 C 341.877 324.210,342.177 323.309,343.002 322.665 C 345.022 321.085,345.370 318.921,343.488 319.643 C 342.670 319.957,342.000 320.693,342.000 321.278 C 342.000 321.864,341.238 323.185,340.306 324.214 C 338.714 325.973,338.714 326.047,340.306 325.436 C 344.715 323.744,330.277 338.733,321.278 345.189 C 269.197 382.554,216.725 394.908,160.832 382.964 C 155.777 381.884,151.245 381.000,150.762 381.000 C 150.278 381.000,150.141 380.581,150.457 380.069 C 150.774 379.557,150.506 378.813,149.862 378.415 C 149.131 377.963,148.959 378.124,149.405 378.845 C 150.575 380.739,147.788 380.207,137.154 376.506 C 68.361 352.560,20.141 297.034,8.624 228.500 C 5.925 212.436,5.758 183.445,8.288 170.000 C 8.547 168.625,9.085 165.475,9.484 163.000 C 9.883 160.525,10.865 156.025,11.666 153.000 C 12.468 149.975,13.336 146.454,13.595 145.175 C 18.367 121.639,43.421 81.480,66.363 60.596 C 100.292 29.710,134.423 15.150,186.000 9.560 C 193.005 8.801,218.750 9.959,228.500 11.472 M173.500 15.627 C 126.926 22.868,81.868 48.552,54.426 83.500 C 52.267 86.250,50.257 88.725,49.960 89.000 C 45.462 93.163,30.219 121.388,25.657 134.000 C -2.685 212.361,24.201 296.568,93.127 345.313 C 105.813 354.285,101.036 348.515,87.500 338.517 C -17.619 260.871,0.020 94.618,119.492 36.970 C 241.870 -22.080,386.445 69.198,381.676 202.500 C 378.703 285.593,324.682 351.088,242.250 371.540 C 228.155 375.037,221.374 377.767,231.250 375.968 C 233.588 375.542,237.625 374.914,240.222 374.572 C 280.216 369.313,335.481 331.307,356.883 294.343 C 358.744 291.129,362.006 285.880,364.133 282.677 C 366.260 279.474,368.000 276.421,368.000 275.894 C 368.000 275.366,369.215 272.586,370.700 269.717 C 372.185 266.848,373.310 264.163,373.200 263.750 C 373.090 263.337,373.477 263.000,374.059 263.000 C 374.641 263.000,374.870 262.598,374.566 262.106 C 374.262 261.615,374.720 259.253,375.583 256.856 C 376.446 254.460,377.317 251.711,377.519 250.746 C 377.721 249.782,378.237 248.432,378.665 247.746 C 379.093 247.061,379.513 246.050,379.598 245.500 C 380.404 240.267,382.278 233.000,382.821 232.999 C 383.194 232.998,383.554 231.311,383.620 229.249 C 383.686 227.187,384.306 220.775,384.997 215.000 C 392.678 150.856,362.003 85.559,306.000 46.840 C 300.491 43.031,281.462 32.000,280.401 32.000 C 280.213 32.000,277.683 30.921,274.780 29.602 C 265.077 25.194,262.030 24.105,251.233 21.185 C 225.168 14.135,196.347 12.074,173.500 15.627 M209.498 34.750 C 209.143 37.913,208.463 42.750,207.988 45.500 C 206.274 55.419,212.584 55.942,220.144 46.507 C 226.270 38.864,226.386 38.876,225.074 47.022 C 223.862 54.550,224.079 55.012,228.809 54.958 C 233.193 54.909,250.597 35.628,247.837 33.878 C 245.231 32.226,244.007 33.090,237.390 41.250 L 230.701 49.500 231.336 43.947 C 231.685 40.893,232.255 36.977,232.601 35.245 C 233.167 32.415,232.949 32.025,230.447 31.397 C 227.477 30.652,227.026 31.026,217.665 42.003 L 213.831 46.500 214.468 42.000 C 216.492 27.704,216.618 29.000,213.208 29.000 C 210.219 29.000,210.128 29.142,209.498 34.750 M165.329 32.433 C 157.360 35.961,158.375 43.102,167.250 45.951 C 174.005 48.120,172.075 52.315,164.394 52.161 C 159.240 52.058,157.786 55.344,162.580 56.260 C 176.539 58.929,183.280 45.097,169.964 41.107 C 163.772 39.252,165.559 34.504,172.200 35.169 C 174.944 35.444,175.500 35.163,175.500 33.500 C 175.500 30.953,169.980 30.374,165.329 32.433 M251.329 37.808 C 248.852 40.276,238.000 55.039,238.000 55.941 C 238.000 57.438,253.100 61.300,254.292 60.108 C 255.734 58.666,254.500 57.561,249.750 56.043 C 245.492 54.683,245.361 54.346,247.901 51.303 C 249.535 49.345,250.121 49.224,253.279 50.194 C 256.884 51.300,260.000 50.811,260.000 49.140 C 260.000 48.632,258.988 47.947,257.750 47.617 C 253.203 46.406,252.390 45.332,254.366 43.148 C 256.060 41.276,256.387 41.253,260.666 42.711 C 266.137 44.576,271.067 42.116,265.841 40.130 C 256.697 36.653,253.070 36.073,251.329 37.808 M135.145 40.124 C 133.850 40.613,133.003 41.572,133.262 42.256 C 133.521 42.940,134.729 47.883,135.946 53.240 C 138.591 64.880,138.223 64.573,146.159 61.745 C 154.996 58.595,154.764 55.004,145.881 57.435 C 143.298 58.141,143.230 58.025,141.016 49.064 C 138.519 38.961,138.461 38.872,135.145 40.124 M110.750 50.173 C 107.588 51.889,105.000 53.931,105.000 54.712 C 105.000 56.294,111.284 70.254,113.562 73.734 L 115.026 75.969 121.513 72.770 C 125.879 70.617,128.000 68.987,128.000 67.785 C 128.000 65.493,126.830 65.536,121.989 68.006 L 118.057 70.011 116.548 67.093 C 115.063 64.221,115.094 64.142,118.519 62.121 C 124.347 58.683,122.902 55.448,116.921 58.541 C 110.939 61.634,109.185 56.095,115.080 52.729 C 123.558 47.889,119.440 45.458,110.750 50.173 M302.570 60.211 C 300.726 61.252,300.762 61.398,303.377 63.484 L 306.115 65.667 297.058 71.409 C 287.481 77.480,286.561 78.601,290.367 79.556 C 292.136 80.000,295.038 78.719,301.843 74.490 L 310.951 68.829 313.885 70.918 C 316.794 72.989,320.035 72.843,319.962 70.643 C 319.941 70.014,317.579 67.885,314.712 65.911 C 304.844 59.117,304.659 59.030,302.570 60.211 M86.892 65.074 C 79.790 70.363,79.745 69.728,87.990 80.555 C 96.346 91.526,95.319 91.130,101.869 85.915 C 109.349 79.959,108.103 75.769,100.562 81.521 L 97.257 84.041 95.536 81.414 C 93.845 78.834,93.871 78.729,96.950 75.552 C 101.308 71.055,99.089 68.746,94.011 72.492 C 90.904 74.784,90.595 74.833,89.373 73.224 C 87.427 70.661,87.698 69.705,91.000 67.500 C 93.883 65.574,94.928 62.691,93.142 61.588 C 92.670 61.296,89.858 62.865,86.892 65.074 M317.500 81.451 C 300.000 88.678,301.488 87.777,303.459 89.954 C 305.189 91.866,305.265 91.866,310.142 89.944 C 318.088 86.812,319.997 88.656,314.863 94.503 C 313.087 96.526,312.031 98.638,312.363 99.503 C 313.371 102.131,316.743 101.117,320.172 97.154 C 323.154 93.707,323.890 93.355,327.257 93.764 C 335.873 94.811,338.503 88.777,332.384 82.003 C 328.076 77.235,327.741 77.223,317.500 81.451 M66.113 83.716 C 60.607 90.140,60.476 89.908,77.958 104.618 C 83.241 109.064,85.339 104.955,80.379 99.876 L 76.623 96.030 78.812 93.700 C 80.015 92.419,81.000 90.650,81.000 89.769 C 81.000 86.881,78.551 87.151,75.836 90.338 C 73.205 93.427,73.146 93.442,71.086 91.578 C 68.477 89.217,68.457 87.801,71.000 85.500 C 73.349 83.374,73.538 81.691,71.607 80.089 C 70.492 79.163,69.394 79.888,66.113 83.716 M328.800 84.200 C 329.460 84.860,330.000 86.210,330.000 87.200 C 330.000 89.511,323.845 89.723,321.980 87.476 C 320.568 85.775,320.534 85.829,324.000 84.264 C 327.260 82.792,327.390 82.790,328.800 84.200 M332.687 99.493 C 322.212 102.240,319.582 104.161,320.438 108.441 C 321.236 112.429,325.568 116.787,329.933 117.992 C 334.540 119.264,355.000 114.685,355.000 112.381 C 355.000 109.749,351.868 109.670,341.788 112.050 C 330.784 114.648,326.864 113.953,326.189 109.284 C 325.794 106.552,327.472 105.699,337.500 103.532 C 346.384 101.612,347.353 101.084,346.426 98.667 C 345.607 96.533,343.487 96.660,332.687 99.493 M214.000 102.954 C 212.075 104.032,207.576 105.906,204.003 107.120 C 199.193 108.754,196.244 110.583,192.644 114.164 C 189.970 116.824,187.423 119.000,186.983 119.000 C 186.543 119.000,183.555 121.096,180.342 123.659 C 166.576 134.636,163.037 139.524,162.916 147.724 C 162.806 155.165,165.509 170.000,167.942 175.309 C 169.688 179.119,169.897 180.419,168.949 181.562 C 167.406 183.421,165.080 194.255,165.035 199.796 C 164.999 204.233,158.595 208.960,152.579 208.990 C 151.522 208.996,149.831 209.748,148.822 210.661 C 146.642 212.634,143.999 214.225,138.252 217.023 C 132.516 219.816,130.815 223.477,130.092 234.584 C 129.559 242.762,129.201 244.029,126.500 247.297 C 124.850 249.293,122.509 252.226,121.297 253.814 C 119.379 256.329,118.218 256.790,112.297 257.384 C 108.559 257.760,103.025 258.507,100.000 259.044 C 96.975 259.581,91.334 260.294,87.464 260.628 C 77.857 261.457,74.000 265.151,74.000 273.524 C 74.000 279.468,76.523 280.286,93.494 279.848 L 108.000 279.473 108.000 281.736 C 108.000 283.333,108.589 284.000,110.000 284.000 C 111.100 284.000,112.000 283.550,112.000 283.000 C 112.000 282.450,113.125 282.000,114.500 282.000 C 115.875 282.000,117.000 282.450,117.000 283.000 C 117.000 283.578,120.167 284.000,124.500 284.000 C 130.500 284.000,132.000 283.700,132.000 282.500 C 132.000 281.675,132.402 281.000,132.893 281.000 C 133.384 281.000,134.045 281.675,134.362 282.500 C 135.208 284.706,147.201 284.570,150.642 282.315 C 153.053 280.735,153.272 280.735,154.156 282.315 C 155.406 284.548,167.540 284.663,170.441 282.468 C 173.183 280.394,175.698 280.453,173.958 282.551 C 170.463 286.762,206.396 282.516,213.898 277.832 C 215.510 276.825,216.489 276.948,219.424 278.529 L 222.990 280.449 220.245 281.975 C 215.702 284.499,262.891 284.790,267.950 282.269 C 272.542 279.981,284.870 280.101,286.588 282.452 C 287.537 283.749,290.603 284.000,305.497 284.000 L 323.273 284.000 322.580 273.250 C 321.884 262.439,319.463 254.844,314.212 247.000 C 311.230 242.545,310.328 238.432,310.622 230.635 C 310.892 223.465,310.756 222.887,308.455 221.379 C 306.838 220.319,306.000 218.836,306.000 217.033 C 306.000 213.946,301.331 208.456,297.449 206.981 C 295.067 206.075,295.000 205.765,295.000 195.650 C 295.000 177.598,293.674 175.754,279.778 174.479 L 272.055 173.770 269.635 169.635 C 268.304 167.361,266.436 162.350,265.485 158.500 C 264.533 154.650,263.366 151.011,262.891 150.414 C 261.240 148.338,258.792 140.474,258.405 136.000 C 258.013 131.470,256.086 126.147,251.167 116.000 L 248.500 110.500 236.000 106.154 C 220.522 100.772,218.440 100.469,214.000 102.954 M223.000 104.607 C 223.000 104.823,221.537 104.968,219.750 104.930 C 217.103 104.872,216.871 104.713,218.500 104.068 C 220.332 103.343,223.000 103.663,223.000 104.607 M245.298 111.923 C 246.634 112.431,247.986 113.840,248.304 115.053 C 248.866 117.205,248.814 117.198,246.190 114.755 C 244.711 113.377,242.825 112.004,242.000 111.704 C 241.175 111.404,241.033 111.122,241.685 111.079 C 242.337 111.036,243.963 111.415,245.298 111.923 M242.436 130.170 C 249.305 136.550,257.000 147.168,257.000 150.266 C 257.000 151.824,260.963 157.370,261.613 156.720 C 261.825 156.508,260.875 154.122,259.503 151.418 C 256.757 146.004,256.449 144.650,258.091 145.197 C 259.506 145.669,264.479 157.355,265.426 162.433 C 265.829 164.596,267.645 169.321,269.460 172.933 C 271.276 176.545,273.493 181.661,274.387 184.302 C 275.280 186.943,277.316 191.668,278.909 194.802 C 282.746 202.346,283.555 208.435,281.402 213.552 C 279.208 218.765,277.263 228.207,276.077 239.401 C 275.086 248.750,272.514 259.000,271.159 259.000 C 269.059 259.000,264.852 240.142,263.533 224.816 C 263.217 221.140,262.292 216.246,261.479 213.940 C 260.666 211.635,260.000 208.170,260.000 206.240 C 260.000 204.311,259.577 201.105,259.059 199.116 C 258.541 197.127,257.587 193.376,256.937 190.779 C 255.552 185.239,252.270 180.450,248.136 177.937 C 245.940 176.601,244.771 174.725,243.578 170.621 C 241.672 164.062,240.878 163.372,238.397 166.114 C 236.589 168.112,236.587 168.225,238.351 169.515 C 240.700 171.232,240.085 174.559,237.462 174.324 C 235.652 174.162,235.633 174.245,237.208 175.404 C 238.835 176.600,239.347 178.246,242.054 191.000 C 242.696 194.025,243.897 197.573,244.722 198.885 C 246.061 201.012,246.052 201.933,244.643 207.385 C 243.774 210.748,242.936 214.585,242.781 215.912 C 242.555 217.854,240.646 219.277,233.000 223.208 C 219.680 230.054,217.859 232.236,218.160 240.985 C 218.391 247.707,218.312 247.946,214.448 252.244 C 210.232 256.933,192.117 266.808,190.061 265.538 C 187.650 264.048,182.871 251.872,183.437 248.663 C 183.867 246.224,183.783 245.958,183.068 247.500 C 182.558 248.600,182.109 251.457,182.070 253.849 C 182.032 256.241,181.356 259.616,180.568 261.349 C 179.780 263.082,178.988 265.400,178.807 266.500 C 178.011 271.330,150.751 269.201,146.143 263.950 C 144.170 261.702,143.080 261.234,140.850 261.680 C 137.047 262.441,136.006 259.504,135.288 246.000 L 134.731 235.500 138.163 231.005 C 140.050 228.532,142.442 226.346,143.477 226.147 C 145.052 225.843,144.897 226.333,142.528 229.142 C 135.404 237.592,134.351 261.000,141.096 261.000 C 141.673 261.000,141.212 259.814,140.073 258.365 C 135.471 252.516,138.809 236.358,145.635 231.433 C 150.865 227.661,170.000 229.696,170.000 234.026 C 170.000 235.342,164.984 235.256,159.726 233.849 C 154.835 232.541,147.654 233.455,148.264 235.307 C 148.498 236.016,151.557 236.703,155.804 237.000 C 161.444 237.395,163.420 237.970,165.179 239.731 L 167.407 241.963 160.454 241.441 C 156.629 241.155,152.037 240.741,150.250 240.523 C 147.646 240.205,147.000 240.482,147.000 241.915 C 147.000 243.460,148.248 243.785,156.160 244.297 C 162.405 244.702,165.806 245.378,166.850 246.422 C 169.326 248.898,167.462 249.481,155.919 249.838 C 147.344 250.104,145.000 250.480,145.000 251.588 C 145.000 252.633,146.431 253.000,150.500 253.000 C 153.525 253.000,156.000 252.550,156.000 252.000 C 156.000 251.450,157.912 250.994,160.250 250.986 C 169.597 250.956,172.505 246.866,165.000 244.306 L 161.500 243.113 165.250 243.056 C 169.678 242.990,169.902 242.193,166.409 238.924 L 163.818 236.500 167.159 236.000 C 175.517 234.749,167.329 228.183,157.250 228.054 C 154.912 228.024,153.007 227.662,153.015 227.250 C 153.097 223.267,163.920 221.658,171.403 224.516 C 173.956 225.491,176.313 226.021,176.640 225.693 C 176.968 225.365,176.100 224.812,174.712 224.464 C 172.098 223.808,171.037 221.577,171.014 216.684 C 170.981 209.966,174.281 207.871,186.276 206.991 C 195.444 206.318,196.341 205.938,197.455 202.250 C 198.014 200.401,197.750 200.000,195.972 200.000 C 191.515 200.000,182.096 192.507,182.029 188.909 C 182.013 188.033,180.160 183.602,177.910 179.060 C 174.236 171.642,173.880 170.279,174.408 165.651 C 174.731 162.818,175.152 157.349,175.344 153.498 C 175.537 149.604,176.426 145.077,177.346 143.298 C 178.256 141.539,179.000 138.938,179.000 137.518 C 179.000 133.842,180.576 133.602,193.754 135.272 C 214.784 137.939,222.973 140.984,227.110 147.678 L 229.155 150.987 227.078 153.628 C 225.589 155.521,225.038 157.579,225.134 160.885 L 225.267 165.500 225.917 160.863 C 226.898 153.864,228.297 152.782,239.305 150.513 L 242.110 149.934 237.805 146.313 C 235.437 144.322,230.284 141.219,226.354 139.419 C 222.424 137.618,218.909 135.663,218.545 135.073 C 217.320 133.090,222.727 133.945,227.926 136.557 C 232.876 139.043,243.458 143.000,245.157 143.000 C 247.058 143.000,245.598 140.980,237.533 132.453 C 223.643 117.767,227.268 116.080,242.436 130.170 M40.607 122.582 C 40.273 123.452,40.000 124.297,40.000 124.461 C 40.000 124.625,43.657 126.268,48.126 128.113 C 57.333 131.915,56.798 132.720,44.950 132.900 C 38.022 133.006,36.000 134.051,36.000 137.525 C 36.000 141.132,61.150 150.658,62.359 147.508 C 63.002 145.831,60.464 144.290,51.331 140.812 C 44.456 138.193,46.037 137.334,58.128 137.118 C 71.835 136.874,70.354 132.187,54.556 125.816 C 41.025 120.359,41.424 120.452,40.607 122.582 M187.449 124.468 C 186.652 126.375,186.000 128.175,186.000 128.468 C 186.000 128.761,188.760 129.000,192.134 129.000 C 199.127 129.000,204.517 130.370,208.058 133.049 C 210.730 135.070,193.778 134.899,189.816 132.865 C 188.889 132.389,186.328 132.000,184.125 132.000 C 181.921 132.000,179.852 131.570,179.527 131.044 C 179.202 130.518,178.166 130.383,177.225 130.744 C 176.285 131.105,177.474 129.310,179.869 126.755 C 182.263 124.200,185.185 121.922,186.361 121.691 C 187.538 121.461,188.590 121.211,188.699 121.136 C 188.808 121.061,188.246 122.561,187.449 124.468 M348.235 123.506 C 346.990 124.401,345.323 126.685,344.531 128.581 C 342.049 134.520,336.000 133.407,336.000 127.012 C 336.000 123.579,335.196 122.824,332.869 124.070 C 330.485 125.346,330.492 128.654,332.885 132.580 C 336.980 139.294,346.008 139.514,349.197 132.978 C 351.167 128.939,352.715 127.000,353.968 127.000 C 355.701 127.000,358.000 130.177,358.000 132.571 C 358.000 135.546,361.550 135.992,362.458 133.132 C 364.580 126.446,354.055 119.322,348.235 123.506 M238.456 136.851 C 240.241 139.196,240.240 139.199,237.873 137.938 C 235.413 136.627,233.764 134.882,231.847 131.561 C 230.382 129.025,235.800 133.360,238.456 136.851 M232.041 145.216 L 237.215 148.432 234.382 149.190 C 232.321 149.741,231.324 149.543,230.720 148.464 C 230.263 147.648,228.769 145.860,227.399 144.490 C 223.986 141.076,225.851 141.368,232.041 145.216 M362.000 147.561 L 362.000 151.123 357.750 150.594 C 341.539 148.580,337.818 148.686,338.168 151.151 C 338.556 153.879,341.304 154.702,350.625 154.882 C 360.589 155.074,362.706 155.779,363.376 159.128 C 363.978 162.138,366.511 163.940,367.950 162.383 C 368.849 161.410,366.981 147.243,365.691 145.250 C 364.009 142.652,362.000 143.910,362.000 147.561 M32.336 154.567 C 31.384 157.047,32.698 157.611,46.733 160.746 C 60.469 163.813,61.000 163.819,61.000 160.901 C 61.000 158.867,61.123 158.912,46.322 155.544 C 33.160 152.548,33.112 152.545,32.336 154.567 M209.327 154.285 C 206.333 155.959,208.522 159.000,212.722 159.000 C 215.384 159.000,215.669 158.717,215.245 156.500 C 214.717 153.740,216.661 153.068,218.859 155.250 C 219.869 156.252,219.986 156.153,219.452 154.750 C 218.659 152.668,212.710 152.395,209.327 154.285 M182.250 154.687 C 179.436 155.766,180.831 160.000,184.000 160.000 C 186.384 160.000,187.000 159.567,187.000 157.893 C 187.000 156.299,187.426 155.948,188.750 156.452 C 189.853 156.872,190.130 156.775,189.500 156.188 C 188.197 154.976,183.845 154.075,182.250 154.687 M231.665 159.478 C 230.852 160.291,229.583 162.321,228.845 163.989 C 228.092 165.689,226.952 166.812,226.251 166.543 C 225.563 166.279,225.000 166.499,225.000 167.031 C 225.000 168.402,227.366 168.234,228.842 166.758 C 230.274 165.326,231.958 167.196,231.985 170.250 C 231.993 171.213,232.675 172.000,233.500 172.000 C 234.325 172.000,235.000 171.605,235.000 171.122 C 235.000 170.640,234.325 169.685,233.500 169.000 C 230.987 166.915,231.726 163.361,235.250 160.584 L 238.500 158.022 235.821 158.011 C 234.348 158.005,232.478 158.665,231.665 159.478 M193.000 164.423 C 193.000 165.206,191.824 167.344,190.386 169.173 L 187.773 172.500 190.886 169.234 C 193.592 166.397,195.016 163.000,193.500 163.000 C 193.225 163.000,193.000 163.640,193.000 164.423 M357.191 171.475 C 354.821 174.514,352.571 176.995,352.191 176.988 C 351.811 176.982,349.137 176.347,346.250 175.579 C 339.962 173.905,339.836 174.374,344.926 180.534 L 348.853 185.285 344.895 190.642 C 340.540 196.537,340.813 196.792,348.782 194.280 L 354.239 192.559 358.224 197.280 C 363.407 203.420,363.838 203.267,363.654 195.353 L 363.500 188.705 369.256 186.767 C 375.836 184.552,375.875 183.785,369.500 182.000 C 363.991 180.458,363.761 180.136,362.500 172.225 L 361.500 165.951 357.191 171.475 M34.510 176.731 C 33.310 185.977,33.463 185.753,27.453 187.098 C 20.033 188.759,20.043 189.211,27.565 192.024 C 33.923 194.402,34.002 194.478,33.505 197.717 C 33.227 199.523,32.742 202.688,32.427 204.750 L 31.855 208.500 37.177 203.368 L 42.500 198.236 48.312 200.222 C 55.692 202.744,56.080 202.240,51.531 196.042 L 47.822 190.990 52.038 185.955 C 57.088 179.923,57.024 179.792,49.858 181.458 L 44.232 182.766 40.498 177.869 C 35.477 171.285,35.222 171.236,34.510 176.731 M247.733 180.750 C 253.952 186.711,258.209 197.616,256.463 203.116 C 255.333 206.678,254.000 203.913,254.000 198.006 C 254.000 189.583,249.644 181.000,245.370 181.000 C 244.123 181.000,241.000 177.268,241.000 175.777 C 241.000 174.427,241.593 174.865,247.733 180.750 M192.728 186.722 C 194.503 186.943,197.653 186.946,199.728 186.730 C 201.802 186.513,200.350 186.333,196.500 186.328 C 192.650 186.324,190.952 186.501,192.728 186.722 M250.403 206.601 C 250.349 208.746,249.477 212.300,248.466 214.500 L 246.627 218.500 246.217 215.500 C 245.642 211.295,247.886 201.791,249.334 202.296 C 249.978 202.520,250.456 204.449,250.403 206.601 M163.638 209.500 C 162.348 212.863,164.096 214.258,166.624 211.884 C 169.656 209.035,169.891 209.386,169.256 215.825 C 168.782 220.636,168.527 221.099,166.616 220.623 C 165.452 220.333,161.904 220.450,158.730 220.883 L 152.961 221.671 154.980 219.521 C 157.823 216.495,157.544 216.000,153.000 216.000 C 150.800 216.000,149.000 215.636,149.000 215.191 C 149.000 212.968,152.004 210.809,155.809 210.299 C 158.141 209.986,160.289 209.341,160.583 208.865 C 161.535 207.326,164.256 207.891,163.638 209.500 M141.273 220.566 C 137.647 223.424,134.217 230.262,133.029 237.000 C 132.268 241.317,132.231 241.215,132.119 234.500 C 131.973 225.656,134.024 221.151,139.000 219.390 C 144.306 217.513,144.813 217.776,141.273 220.566 M238.867 225.792 C 237.535 227.418,234.624 229.242,232.210 229.963 C 225.567 231.947,223.952 233.793,222.517 241.042 L 221.238 247.500 221.119 240.715 C 220.992 233.466,222.791 229.018,225.865 228.980 C 226.764 228.969,230.425 227.442,234.000 225.586 C 241.437 221.726,242.171 221.757,238.867 225.792 M182.299 229.071 C 185.004 231.165,185.081 231.477,184.590 238.369 C 184.144 244.619,184.192 244.901,184.972 240.650 C 185.462 237.982,186.105 235.170,186.400 234.400 C 187.277 232.115,185.959 230.023,182.629 228.415 L 179.500 226.903 182.299 229.071 M280.523 237.634 C 280.149 241.124,279.527 244.175,279.140 244.414 C 278.753 244.653,278.760 241.620,279.156 237.674 C 280.227 227.007,280.176 227.279,280.717 229.394 C 280.984 230.436,280.896 234.144,280.523 237.634 M156.750 235.689 C 155.787 235.941,154.213 235.941,153.250 235.689 C 152.287 235.438,153.075 235.232,155.000 235.232 C 156.925 235.232,157.713 235.438,156.750 235.689 M158.250 242.723 C 156.463 242.945,153.537 242.945,151.750 242.723 C 149.963 242.502,151.425 242.320,155.000 242.320 C 158.575 242.320,160.037 242.502,158.250 242.723 M219.701 253.172 C 216.863 259.965,206.536 267.227,197.667 268.667 C 191.356 269.691,193.527 267.415,203.370 262.690 C 210.441 259.295,213.678 257.070,216.562 253.620 C 220.909 248.419,221.737 248.301,219.701 253.172 M136.135 261.645 C 136.650 262.275,138.727 263.101,140.752 263.481 C 142.776 263.861,145.035 265.033,145.773 266.086 C 146.510 267.139,147.763 268.000,148.557 268.000 C 153.081 268.000,146.289 279.061,140.992 280.321 C 137.208 281.220,136.391 280.167,134.537 272.000 C 133.601 267.875,132.420 263.462,131.913 262.193 C 131.331 260.738,131.362 259.192,131.995 258.009 C 132.548 256.976,133.048 255.089,133.107 253.816 C 133.166 252.542,133.661 253.525,134.207 256.000 C 134.752 258.475,135.620 261.015,136.135 261.645 M159.750 254.584 C 165.167 256.953,163.576 258.000,154.559 258.000 C 149.659 258.000,145.841 258.447,145.459 259.067 C 144.472 260.664,145.856 261.544,147.217 260.183 C 147.925 259.475,151.528 259.000,156.200 259.000 C 163.106 259.000,164.000 258.789,164.000 257.161 C 164.000 255.387,160.181 252.914,157.703 253.082 C 157.041 253.126,157.963 253.803,159.750 254.584 M276.537 318.959 C 274.584 321.117,273.200 319.901,288.447 329.416 C 299.259 336.164,298.462 336.130,304.404 330.097 C 309.007 325.424,309.137 325.143,307.177 324.095 C 305.898 323.410,304.898 323.356,304.530 323.951 C 304.205 324.477,302.669 325.812,301.116 326.918 L 298.292 328.928 290.896 324.364 C 278.719 316.850,278.515 316.773,276.537 318.959 M123.500 320.207 C 117.011 322.475,111.000 328.918,111.000 333.605 C 111.000 336.311,118.547 342.824,122.553 343.576 C 124.992 344.033,125.955 344.676,125.597 345.607 C 123.991 349.792,129.431 349.248,133.449 344.822 C 141.211 336.271,141.407 336.295,140.588 345.688 C 139.833 354.338,142.003 358.364,146.492 356.641 C 147.322 356.323,148.000 356.479,148.000 356.988 C 148.000 358.154,163.837 363.219,165.081 362.450 C 167.209 361.135,165.683 359.357,160.996 357.692 L 155.993 355.915 157.497 353.006 C 158.998 350.102,159.011 350.099,163.448 351.434 C 165.893 352.170,168.143 352.524,168.447 352.220 C 169.889 350.777,168.647 349.165,164.987 347.727 C 161.153 346.221,161.027 346.034,162.165 343.537 C 162.820 342.099,163.904 341.133,164.574 341.390 C 170.409 343.629,174.147 344.253,175.232 343.168 C 176.958 341.442,175.477 340.503,166.500 337.637 L 158.500 335.083 152.774 341.292 L 147.048 347.500 147.564 342.500 C 147.848 339.750,148.255 336.063,148.468 334.306 C 149.376 326.831,132.237 317.153,123.500 320.207 M266.500 326.318 C 259.458 331.308,246.309 337.146,236.651 339.572 C 228.520 341.615,228.537 341.461,234.928 355.250 C 238.963 363.956,240.440 365.277,243.773 363.162 C 244.790 362.516,244.740 361.622,243.523 358.709 C 241.410 353.653,241.452 353.561,246.473 352.218 C 253.320 350.387,251.749 347.638,244.381 348.558 C 237.834 349.376,234.549 345.622,239.857 343.387 C 246.715 340.498,247.149 340.660,252.383 348.042 C 260.065 358.880,259.538 358.646,267.882 354.915 C 274.438 351.983,276.394 349.980,274.090 348.556 C 273.590 348.247,271.051 348.907,268.447 350.023 C 261.012 353.210,256.295 348.137,263.500 344.701 C 269.812 341.691,267.056 338.825,260.488 341.569 C 256.675 343.163,256.538 343.147,254.723 340.906 L 252.864 338.610 257.182 336.350 C 263.036 333.286,262.525 333.118,271.289 341.000 C 275.569 344.850,279.582 348.000,280.206 348.000 C 282.158 348.000,292.982 340.566,292.991 339.219 C 293.008 336.755,290.145 336.875,286.172 339.505 C 282.310 342.060,282.074 342.095,279.583 340.463 C 276.321 338.325,276.335 338.207,280.250 334.905 C 284.016 331.729,282.959 328.304,278.975 330.775 C 277.889 331.449,276.125 332.543,275.056 333.206 C 273.450 334.202,272.745 334.080,271.001 332.501 L 268.891 330.591 272.611 327.468 C 274.842 325.595,276.041 323.875,275.607 323.172 C 274.434 321.274,272.842 321.824,266.500 326.318 M134.777 325.557 C 138.733 328.327,137.335 333.394,131.645 336.911 C 122.744 342.412,113.503 335.550,120.750 328.821 C 126.212 323.750,130.705 322.704,134.777 325.557 M324.042 338.961 C 322.139 340.586,320.831 342.164,321.134 342.467 C 321.666 342.999,328.000 337.487,328.000 336.491 C 328.000 335.665,327.622 335.901,324.042 338.961 M197.327 345.553 C 192.166 347.813,191.400 351.939,196.500 350.000 C 199.798 348.746,200.185 349.742,199.394 357.457 C 198.741 363.834,198.651 364.000,195.862 364.000 C 193.667 364.000,193.000 364.466,193.000 366.000 C 193.000 367.852,193.667 368.000,202.000 368.000 C 210.333 368.000,211.000 367.852,211.000 366.000 C 211.000 364.533,210.333 364.000,208.500 364.000 L 206.000 364.000 206.000 354.000 L 206.000 344.000 203.250 344.082 C 201.738 344.126,199.072 344.789,197.327 345.553 M315.029 345.961 C 312.584 347.507,314.317 347.940,317.002 346.454 C 318.450 345.652,318.870 345.062,318.000 345.051 C 317.175 345.040,315.838 345.449,315.029 345.961 M196.000 390.500 C 196.000 391.325,195.339 392.000,194.531 392.000 C 193.637 392.000,193.288 391.414,193.638 390.500 C 193.955 389.675,194.616 389.000,195.107 389.000 C 195.598 389.000,196.000 389.675,196.000 390.500 " stroke="none" fill="#000000" fill-rule="evenodd"></path></g></svg>